# xmcd CD database file
#
# Track frame offsets:
#	150
#	37035
#	48247
#	55848
#	65332
#	78372
#	88121
#	108592
#	116610
#	136427
#	145098
#	158043
#
# Disc length: 2203 seconds
#
# Revision: 0
# Processed by: cddbd v1.5.2PL0 Copyright (c) Steve Scherf et al.
# Submitted via: CDex 1.70beta3
#
DISCID=a108990c
DTITLE=Various Artist - DIME　Presents X'mas Jazz
DYEAR=2011
DGENRE=Jazz
TTITLE0=オー・ホーリー・ナイト／ハーレム少年合唱団 feat.ダイアン・リーヴス
TTITLE1=ウインター・ワンダーランド／チェット・ベイカー
TTITLE2=もろびとこぞりて／エラ・フィッツジェラルド
TTITLE3=ひいらぎ飾りて／ジョー・スタッフォード
TTITLE4=パタ・パン～ホワイル・シェパーズ・ウォッチト・ゼア・フロックス／ビング・クロスビー
TTITLE5=ああ、ベツレヘムよ／エラ・フィッツジェラルド
TTITLE6=ゴッド・レスト・ヤ・メリー・ジェントルメン／ジョーイ・カルデラッツォ
TTITLE7=荒野のはてに／エラ・フィッツジェラルド
TTITLE8=ハッピー・フュー／quasimode feat.ウーター・ヘメル
TTITLE9=素敵なクリスマスを／ビング・クロスビー
TTITLE10=きよしこの夜／ベニー・グリーン
TTITLE11=蛍の光／ルー・ロウルズ
EXTD=YEAR: 2011
EXTT0=
EXTT1=
EXTT2=
EXTT3=
EXTT4=
EXTT5=
EXTT6=
EXTT7=
EXTT8=
EXTT9=
EXTT10=
EXTT11=
PLAYORDER=
